<?xml version="1.0" encoding="UTF-8" standalone="no"?>
<!DOCTYPE svg PUBLIC "-//W3C//DTD SVG 1.1//EN"
 "http://www.w3.org/Graphics/SVG/1.1/DTD/svg11.dtd">
<!-- Generated by graphviz version 12.1.1 (20240910.0053)
 -->
<!-- Title: INFRA Pages: 1 -->
<svg width="1956pt" height="512pt"
 viewBox="0.00 0.00 1956.05 512.00" xmlns="http://www.w3.org/2000/svg" xmlns:xlink="http://www.w3.org/1999/xlink">
<g id="graph0" class="graph" transform="scale(1 1) rotate(0) translate(4 508)">
<title>INFRA</title>
<polygon fill="white" stroke="none" points="-4,4 -4,-508 1952.05,-508 1952.05,4 -4,4"/>
<!-- archesys&#45;web&#45;app&#45;vpc -->
<g id="node1" class="node">
<title>archesys&#45;web&#45;app&#45;vpc</title>
<path fill="#e6e6e6" stroke="black" stroke-width="2" d="M629.95,-72C629.95,-72 497.11,-72 497.11,-72 491.11,-72 485.11,-66 485.11,-60 485.11,-60 485.11,-12 485.11,-12 485.11,-6 491.11,0 497.11,0 497.11,0 629.95,0 629.95,0 635.95,0 641.95,-6 641.95,-12 641.95,-12 641.95,-60 641.95,-60 641.95,-66 635.95,-72 629.95,-72"/>
<text text-anchor="middle" x="563.53" y="-40.2" font-family="Arial" font-size="14.00">archesys&#45;web&#45;app&#45;vpc</text>
<text text-anchor="middle" x="563.53" y="-23.4" font-family="Arial" font-size="14.00">(AWS::EC2::VPC)</text>
</g>
<!-- public_subnets -->
<g id="node2" class="node">
<title>public_subnets</title>
<path fill="#e6e6e6" stroke="black" stroke-width="2" d="M1347.72,-180C1347.72,-180 1227.34,-180 1227.34,-180 1221.34,-180 1215.34,-174 1215.34,-168 1215.34,-168 1215.34,-120 1215.34,-120 1215.34,-114 1221.34,-108 1227.34,-108 1227.34,-108 1347.72,-108 1347.72,-108 1353.72,-108 1359.72,-114 1359.72,-120 1359.72,-120 1359.72,-168 1359.72,-168 1359.72,-174 1353.72,-180 1347.72,-180"/>
<text text-anchor="middle" x="1287.53" y="-148.2" font-family="Arial" font-size="14.00">public_subnets</text>
<text text-anchor="middle" x="1287.53" y="-131.4" font-family="Arial" font-size="14.00">(AWS::EC2::Subnet)</text>
</g>
<!-- public_subnets&#45;&gt;archesys&#45;web&#45;app&#45;vpc -->
<g id="edge1" class="edge">
<title>public_subnets&#45;&gt;archesys&#45;web&#45;app&#45;vpc</title>
<path fill="none" stroke="black" d="M1215.13,-132.4C1081.97,-112.9 798.58,-71.41 653.38,-50.15"/>
<polygon fill="black" stroke="black" points="654.22,-46.74 643.82,-48.75 653.2,-53.67 654.22,-46.74"/>
</g>
<!-- private_subnets -->
<g id="node3" class="node">
<title>private_subnets</title>
<path fill="#e6e6e6" stroke="black" stroke-width="2" d="M716.72,-180C716.72,-180 596.34,-180 596.34,-180 590.34,-180 584.34,-174 584.34,-168 584.34,-168 584.34,-120 584.34,-120 584.34,-114 590.34,-108 596.34,-108 596.34,-108 716.72,-108 716.72,-108 722.72,-108 728.72,-114 728.72,-120 728.72,-120 728.72,-168 728.72,-168 728.72,-174 722.72,-180 716.72,-180"/>
<text text-anchor="middle" x="656.53" y="-148.2" font-family="Arial" font-size="14.00">private_subnets</text>
<text text-anchor="middle" x="656.53" y="-131.4" font-family="Arial" font-size="14.00">(AWS::EC2::Subnet)</text>
</g>
<!-- private_subnets&#45;&gt;archesys&#45;web&#45;app&#45;vpc -->
<g id="edge2" class="edge">
<title>private_subnets&#45;&gt;archesys&#45;web&#45;app&#45;vpc</title>
<path fill="none" stroke="black" d="M625.56,-107.7C617.96,-99.03 609.72,-89.65 601.81,-80.63"/>
<polygon fill="black" stroke="black" points="604.59,-78.49 595.36,-73.28 599.33,-83.11 604.59,-78.49"/>
</g>
<!-- db_subnets -->
<g id="node4" class="node">
<title>db_subnets</title>
<path fill="#e6e6e6" stroke="black" stroke-width="2" d="M162.72,-180C162.72,-180 42.34,-180 42.34,-180 36.34,-180 30.34,-174 30.34,-168 30.34,-168 30.34,-120 30.34,-120 30.34,-114 36.34,-108 42.34,-108 42.34,-108 162.72,-108 162.72,-108 168.72,-108 174.72,-114 174.72,-120 174.72,-120 174.72,-168 174.72,-168 174.72,-174 168.72,-180 162.72,-180"/>
<text text-anchor="middle" x="102.53" y="-148.2" font-family="Arial" font-size="14.00">db_subnets</text>
<text text-anchor="middle" x="102.53" y="-131.4" font-family="Arial" font-size="14.00">(AWS::EC2::Subnet)</text>
</g>
<!-- db_subnets&#45;&gt;archesys&#45;web&#45;app&#45;vpc -->
<g id="edge3" class="edge">
<title>db_subnets&#45;&gt;archesys&#45;web&#45;app&#45;vpc</title>
<path fill="none" stroke="black" d="M174.89,-112.37C179.48,-110.79 184.05,-109.32 188.53,-108 284.24,-79.77 397.11,-60.18 473.84,-48.84"/>
<polygon fill="black" stroke="black" points="474,-52.35 483.39,-47.45 472.99,-45.43 474,-52.35"/>
</g>
<!-- igw -->
<g id="node5" class="node">
<title>igw</title>
<path fill="#e6e6e6" stroke="black" stroke-width="2" d="M1568.9,-180C1568.9,-180 1390.17,-180 1390.17,-180 1384.17,-180 1378.17,-174 1378.17,-168 1378.17,-168 1378.17,-120 1378.17,-120 1378.17,-114 1384.17,-108 1390.17,-108 1390.17,-108 1568.9,-108 1568.9,-108 1574.9,-108 1580.9,-114 1580.9,-120 1580.9,-120 1580.9,-168 1580.9,-168 1580.9,-174 1574.9,-180 1568.9,-180"/>
<text text-anchor="middle" x="1479.53" y="-148.2" font-family="Arial" font-size="14.00">igw</text>
<text text-anchor="middle" x="1479.53" y="-131.4" font-family="Arial" font-size="14.00">(AWS::EC2::InternetGateway)</text>
</g>
<!-- igw&#45;&gt;archesys&#45;web&#45;app&#45;vpc -->
<g id="edge4" class="edge">
<title>igw&#45;&gt;archesys&#45;web&#45;app&#45;vpc</title>
<path fill="none" stroke="black" d="M1377.83,-109.99C1374.71,-109.28 1371.6,-108.61 1368.53,-108 1112.57,-56.99 803.52,-42.62 653.71,-38.58"/>
<polygon fill="black" stroke="black" points="653.93,-35.09 643.84,-38.32 653.74,-42.08 653.93,-35.09"/>
</g>
<!-- nat_gateway -->
<g id="node6" class="node">
<title>nat_gateway</title>
<path fill="#e6e6e6" stroke="black" stroke-width="2" d="M1936.05,-288C1936.05,-288 1783.01,-288 1783.01,-288 1777.01,-288 1771.01,-282 1771.01,-276 1771.01,-276 1771.01,-228 1771.01,-228 1771.01,-222 1777.01,-216 1783.01,-216 1783.01,-216 1936.05,-216 1936.05,-216 1942.05,-216 1948.05,-222 1948.05,-228 1948.05,-228 1948.05,-276 1948.05,-276 1948.05,-282 1942.05,-288 1936.05,-288"/>
<text text-anchor="middle" x="1859.53" y="-256.2" font-family="Arial" font-size="14.00">nat_gateway</text>
<text text-anchor="middle" x="1859.53" y="-239.4" font-family="Arial" font-size="14.00">(AWS::EC2::NatGateway)</text>
</g>
<!-- nat_gateway&#45;&gt;public_subnets -->
<g id="edge5" class="edge">
<title>nat_gateway&#45;&gt;public_subnets</title>
<path fill="none" stroke="black" d="M1770.61,-218.17C1767.56,-217.39 1764.53,-216.66 1761.53,-216 1594.28,-179.07 1541.37,-221.02 1371.12,-180.07"/>
<polygon fill="black" stroke="black" points="1372.02,-176.69 1361.47,-177.68 1370.33,-183.48 1372.02,-176.69"/>
</g>
<!-- archesys&#45;web&#45;app&#45;lb -->
<g id="node7" class="node">
<title>archesys&#45;web&#45;app&#45;lb</title>
<path fill="#e78f81" stroke="black" stroke-width="2" d="M1740.61,-288C1740.61,-288 1454.45,-288 1454.45,-288 1448.45,-288 1442.45,-282 1442.45,-276 1442.45,-276 1442.45,-228 1442.45,-228 1442.45,-222 1448.45,-216 1454.45,-216 1454.45,-216 1740.61,-216 1740.61,-216 1746.61,-216 1752.61,-222 1752.61,-228 1752.61,-228 1752.61,-276 1752.61,-276 1752.61,-282 1746.61,-288 1740.61,-288"/>
<text text-anchor="middle" x="1597.53" y="-256.2" font-family="Arial" font-size="14.00">archesys&#45;web&#45;app&#45;lb</text>
<text text-anchor="middle" x="1597.53" y="-239.4" font-family="Arial" font-size="14.00">(AWS::ElasticLoadBalancingV2::LoadBalancer)</text>
</g>
<!-- archesys&#45;web&#45;app&#45;lb&#45;&gt;public_subnets -->
<g id="edge6" class="edge">
<title>archesys&#45;web&#45;app&#45;lb&#45;&gt;public_subnets</title>
<path fill="none" stroke="black" d="M1475.77,-215.59C1444.03,-205.74 1409.81,-194.57 1370.48,-180.24"/>
<polygon fill="black" stroke="black" points="1371.82,-177.01 1361.23,-176.84 1369.41,-183.58 1371.82,-177.01"/>
</g>
<!-- archesys&#45;web&#45;alb&#45;sg -->
<g id="node10" class="node">
<title>archesys&#45;web&#45;alb&#45;sg</title>
<path fill="#e6e6e6" stroke="black" stroke-width="2" d="M554.28,-180C554.28,-180 388.79,-180 388.79,-180 382.79,-180 376.79,-174 376.79,-168 376.79,-168 376.79,-120 376.79,-120 376.79,-114 382.79,-108 388.79,-108 388.79,-108 554.28,-108 554.28,-108 560.28,-108 566.28,-114 566.28,-120 566.28,-120 566.28,-168 566.28,-168 566.28,-174 560.28,-180 554.28,-180"/>
<text text-anchor="middle" x="471.53" y="-148.2" font-family="Arial" font-size="14.00">archesys&#45;web&#45;alb&#45;sg</text>
<text text-anchor="middle" x="471.53" y="-131.4" font-family="Arial" font-size="14.00">(AWS::EC2::SecurityGroup)</text>
</g>
<!-- archesys&#45;web&#45;app&#45;lb&#45;&gt;archesys&#45;web&#45;alb&#45;sg -->
<g id="edge7" class="edge">
<title>archesys&#45;web&#45;app&#45;lb&#45;&gt;archesys&#45;web&#45;alb&#45;sg</title>
<path fill="none" stroke="black" d="M1442.26,-217.17C1439.33,-216.76 1436.42,-216.37 1433.53,-216 1058.59,-168.47 952.87,-247.98 577.92,-180.25"/>
<polygon fill="black" stroke="black" points="578.7,-176.84 568.23,-178.48 577.44,-183.72 578.7,-176.84"/>
</g>
<!-- archesys&#45;web&#45;app&#45;tg -->
<g id="node8" class="node">
<title>archesys&#45;web&#45;app&#45;tg</title>
<path fill="#e78f81" stroke="black" stroke-width="2" d="M1140.1,-288C1140.1,-288 860.96,-288 860.96,-288 854.96,-288 848.96,-282 848.96,-276 848.96,-276 848.96,-228 848.96,-228 848.96,-222 854.96,-216 860.96,-216 860.96,-216 1140.1,-216 1140.1,-216 1146.1,-216 1152.1,-222 1152.1,-228 1152.1,-228 1152.1,-276 1152.1,-276 1152.1,-282 1146.1,-288 1140.1,-288"/>
<text text-anchor="middle" x="1000.53" y="-256.2" font-family="Arial" font-size="14.00">archesys&#45;web&#45;app&#45;tg</text>
<text text-anchor="middle" x="1000.53" y="-239.4" font-family="Arial" font-size="14.00">(AWS::ElasticLoadBalancingV2::TargetGroup)</text>
</g>
<!-- archesys&#45;web&#45;app&#45;tg&#45;&gt;archesys&#45;web&#45;app&#45;vpc -->
<g id="edge8" class="edge">
<title>archesys&#45;web&#45;app&#45;tg&#45;&gt;archesys&#45;web&#45;app&#45;vpc</title>
<path fill="none" stroke="black" d="M939.88,-215.53C887.2,-185.33 808.44,-141.62 737.53,-108 710.34,-95.11 680.16,-82.29 652.68,-71.17"/>
<polygon fill="black" stroke="black" points="654.27,-68.04 643.69,-67.56 651.66,-74.54 654.27,-68.04"/>
</g>
<!-- archesys&#45;web&#45;app&#45;sg -->
<g id="node9" class="node">
<title>archesys&#45;web&#45;app&#45;sg</title>
<path fill="#e6e6e6" stroke="black" stroke-width="2" d="M408.28,-288C408.28,-288 242.79,-288 242.79,-288 236.79,-288 230.79,-282 230.79,-276 230.79,-276 230.79,-228 230.79,-228 230.79,-222 236.79,-216 242.79,-216 242.79,-216 408.28,-216 408.28,-216 414.28,-216 420.28,-222 420.28,-228 420.28,-228 420.28,-276 420.28,-276 420.28,-282 414.28,-288 408.28,-288"/>
<text text-anchor="middle" x="325.53" y="-256.2" font-family="Arial" font-size="14.00">archesys&#45;web&#45;app&#45;sg</text>
<text text-anchor="middle" x="325.53" y="-239.4" font-family="Arial" font-size="14.00">(AWS::EC2::SecurityGroup)</text>
</g>
<!-- archesys&#45;web&#45;app&#45;sg&#45;&gt;archesys&#45;web&#45;app&#45;vpc -->
<g id="edge9" class="edge">
<title>archesys&#45;web&#45;app&#45;sg&#45;&gt;archesys&#45;web&#45;app&#45;vpc</title>
<path fill="none" stroke="black" d="M327.13,-215.74C330.4,-183.78 339.97,-137.32 367.53,-108 395.39,-78.36 436.57,-61.06 474.01,-50.98"/>
<polygon fill="black" stroke="black" points="474.67,-54.42 483.5,-48.57 472.95,-47.64 474.67,-54.42"/>
</g>
<!-- archesys&#45;web&#45;app&#45;sg&#45;&gt;archesys&#45;web&#45;alb&#45;sg -->
<g id="edge10" class="edge">
<title>archesys&#45;web&#45;app&#45;sg&#45;&gt;archesys&#45;web&#45;alb&#45;sg</title>
<path fill="none" stroke="black" d="M374.15,-215.7C386.95,-206.41 400.89,-196.29 414.11,-186.69"/>
<polygon fill="black" stroke="black" points="415.87,-189.74 421.9,-181.03 411.75,-184.07 415.87,-189.74"/>
</g>
<!-- archesys&#45;web&#45;alb&#45;sg&#45;&gt;archesys&#45;web&#45;app&#45;vpc -->
<g id="edge11" class="edge">
<title>archesys&#45;web&#45;alb&#45;sg&#45;&gt;archesys&#45;web&#45;app&#45;vpc</title>
<path fill="none" stroke="black" d="M502.17,-107.7C509.69,-99.03 517.84,-89.65 525.66,-80.63"/>
<polygon fill="black" stroke="black" points="528.13,-83.13 532.04,-73.29 522.84,-78.54 528.13,-83.13"/>
</g>
<!-- archesys&#45;web&#45;db&#45;sg -->
<g id="node11" class="node">
<title>archesys&#45;web&#45;db&#45;sg</title>
<path fill="#e6e6e6" stroke="black" stroke-width="2" d="M400.28,-396C400.28,-396 234.79,-396 234.79,-396 228.79,-396 222.79,-390 222.79,-384 222.79,-384 222.79,-336 222.79,-336 222.79,-330 228.79,-324 234.79,-324 234.79,-324 400.28,-324 400.28,-324 406.28,-324 412.28,-330 412.28,-336 412.28,-336 412.28,-384 412.28,-384 412.28,-390 406.28,-396 400.28,-396"/>
<text text-anchor="middle" x="317.53" y="-364.2" font-family="Arial" font-size="14.00">archesys&#45;web&#45;db&#45;sg</text>
<text text-anchor="middle" x="317.53" y="-347.4" font-family="Arial" font-size="14.00">(AWS::EC2::SecurityGroup)</text>
</g>
<!-- archesys&#45;web&#45;db&#45;sg&#45;&gt;archesys&#45;web&#45;app&#45;vpc -->
<g id="edge12" class="edge">
<title>archesys&#45;web&#45;db&#45;sg&#45;&gt;archesys&#45;web&#45;app&#45;vpc</title>
<path fill="none" stroke="black" d="M251.92,-323.53C239.67,-313.72 228.53,-301.88 221.53,-288 207.12,-259.43 209.28,-245.56 221.53,-216 262.75,-116.5 386.99,-71.38 473.78,-51.58"/>
<polygon fill="black" stroke="black" points="474.47,-55.01 483.48,-49.45 472.97,-48.18 474.47,-55.01"/>
</g>
<!-- archesys&#45;web&#45;db&#45;sg&#45;&gt;archesys&#45;web&#45;app&#45;sg -->
<g id="edge13" class="edge">
<title>archesys&#45;web&#45;db&#45;sg&#45;&gt;archesys&#45;web&#45;app&#45;sg</title>
<path fill="none" stroke="black" d="M320.19,-323.7C320.78,-315.93 321.41,-307.57 322.03,-299.43"/>
<polygon fill="black" stroke="black" points="325.5,-299.89 322.76,-289.65 318.52,-299.36 325.5,-299.89"/>
</g>
<!-- ecs_cluster -->
<g id="node12" class="node">
<title>ecs_cluster</title>
<path fill="#b7e0ff" stroke="black" stroke-width="2" d="M818.48,-288C818.48,-288 696.58,-288 696.58,-288 690.58,-288 684.58,-282 684.58,-276 684.58,-276 684.58,-228 684.58,-228 684.58,-222 690.58,-216 696.58,-216 696.58,-216 818.48,-216 818.48,-216 824.48,-216 830.48,-222 830.48,-228 830.48,-228 830.48,-276 830.48,-276 830.48,-282 824.48,-288 818.48,-288"/>
<text text-anchor="middle" x="757.53" y="-256.2" font-family="Arial" font-size="14.00">ecs_cluster</text>
<text text-anchor="middle" x="757.53" y="-239.4" font-family="Arial" font-size="14.00">(AWS::ECS::Cluster)</text>
</g>
<!-- ecs_task_definition -->
<g id="node13" class="node">
<title>ecs_task_definition</title>
<path fill="#b7e0ff" stroke="black" stroke-width="2" d="M616.66,-288C616.66,-288 450.4,-288 450.4,-288 444.4,-288 438.4,-282 438.4,-276 438.4,-276 438.4,-228 438.4,-228 438.4,-222 444.4,-216 450.4,-216 450.4,-216 616.66,-216 616.66,-216 622.66,-216 628.66,-222 628.66,-228 628.66,-228 628.66,-276 628.66,-276 628.66,-282 622.66,-288 616.66,-288"/>
<text text-anchor="middle" x="533.53" y="-256.2" font-family="Arial" font-size="14.00">ecs_task_definition</text>
<text text-anchor="middle" x="533.53" y="-239.4" font-family="Arial" font-size="14.00">(AWS::ECS::TaskDefinition)</text>
</g>
<!-- ecs_service -->
<g id="node14" class="node">
<title>ecs_service</title>
<path fill="#b7e0ff" stroke="black" stroke-width="2" d="M718.65,-396C718.65,-396 594.41,-396 594.41,-396 588.41,-396 582.41,-390 582.41,-384 582.41,-384 582.41,-336 582.41,-336 582.41,-330 588.41,-324 594.41,-324 594.41,-324 718.65,-324 718.65,-324 724.65,-324 730.65,-330 730.65,-336 730.65,-336 730.65,-384 730.65,-384 730.65,-390 724.65,-396 718.65,-396"/>
<text text-anchor="middle" x="656.53" y="-364.2" font-family="Arial" font-size="14.00">ecs_service</text>
<text text-anchor="middle" x="656.53" y="-347.4" font-family="Arial" font-size="14.00">(AWS::ECS::Service)</text>
</g>
<!-- ecs_service&#45;&gt;private_subnets -->
<g id="edge16" class="edge">
<title>ecs_service&#45;&gt;private_subnets</title>
<path fill="none" stroke="black" d="M656.53,-323.66C656.53,-287.65 656.53,-231.6 656.53,-191.89"/>
<polygon fill="black" stroke="black" points="660.03,-191.9 656.53,-181.9 653.03,-191.9 660.03,-191.9"/>
</g>
<!-- ecs_service&#45;&gt;archesys&#45;web&#45;app&#45;tg -->
<g id="edge18" class="edge">
<title>ecs_service&#45;&gt;archesys&#45;web&#45;app&#45;tg</title>
<path fill="none" stroke="black" d="M730.75,-336.13C772.71,-323.2 826.29,-306.69 874.63,-291.79"/>
<polygon fill="black" stroke="black" points="875.53,-295.18 884.05,-288.89 873.47,-288.49 875.53,-295.18"/>
</g>
<!-- ecs_service&#45;&gt;archesys&#45;web&#45;app&#45;sg -->
<g id="edge17" class="edge">
<title>ecs_service&#45;&gt;archesys&#45;web&#45;app&#45;sg</title>
<path fill="none" stroke="black" d="M582.03,-336.14C540.35,-323.25 487.19,-306.64 431.51,-288.62"/>
<polygon fill="black" stroke="black" points="432.75,-285.35 422.16,-285.59 430.59,-292.01 432.75,-285.35"/>
</g>
<!-- ecs_service&#45;&gt;ecs_cluster -->
<g id="edge14" class="edge">
<title>ecs_service&#45;&gt;ecs_cluster</title>
<path fill="none" stroke="black" d="M690.16,-323.7C698.51,-314.94 707.55,-305.45 716.22,-296.35"/>
<polygon fill="black" stroke="black" points="718.64,-298.89 723,-289.24 713.57,-294.06 718.64,-298.89"/>
</g>
<!-- ecs_service&#45;&gt;ecs_task_definition -->
<g id="edge15" class="edge">
<title>ecs_service&#45;&gt;ecs_task_definition</title>
<path fill="none" stroke="black" d="M615.57,-323.7C605.1,-314.67 593.72,-304.87 582.87,-295.52"/>
<polygon fill="black" stroke="black" points="585.32,-293.01 575.46,-289.13 580.75,-298.31 585.32,-293.01"/>
</g>
<!-- archesys&#45;db&#45;subnets -->
<g id="node15" class="node">
<title>archesys&#45;db&#45;subnets</title>
<path fill="#ffcfb3" stroke="black" stroke-width="2" d="M205.06,-389.45C205.06,-393.07 159.11,-396 102.53,-396 45.96,-396 0,-393.07 0,-389.45 0,-389.45 0,-330.55 0,-330.55 0,-326.93 45.96,-324 102.53,-324 159.11,-324 205.06,-326.93 205.06,-330.55 205.06,-330.55 205.06,-389.45 205.06,-389.45"/>
<path fill="none" stroke="black" stroke-width="2" d="M205.06,-389.45C205.06,-385.84 159.11,-382.91 102.53,-382.91 45.96,-382.91 0,-385.84 0,-389.45"/>
<text text-anchor="middle" x="102.53" y="-364.2" font-family="Arial" font-size="14.00">archesys&#45;db&#45;subnets</text>
<text text-anchor="middle" x="102.53" y="-347.4" font-family="Arial" font-size="14.00">(AWS::RDS::DBSubnetGroup)</text>
</g>
<!-- archesys&#45;db&#45;subnets&#45;&gt;db_subnets -->
<g id="edge19" class="edge">
<title>archesys&#45;db&#45;subnets&#45;&gt;db_subnets</title>
<path fill="none" stroke="black" d="M102.53,-323.66C102.53,-287.65 102.53,-231.6 102.53,-191.89"/>
<polygon fill="black" stroke="black" points="106.03,-191.9 102.53,-181.9 99.03,-191.9 106.03,-191.9"/>
</g>
<!-- archesys&#45;web&#45;app&#45;db -->
<g id="node16" class="node">
<title>archesys&#45;web&#45;app&#45;db</title>
<path fill="#ffcfb3" stroke="black" stroke-width="2" d="M292.59,-497.45C292.59,-501.07 255.36,-504 209.53,-504 163.7,-504 126.47,-501.07 126.47,-497.45 126.47,-497.45 126.47,-438.55 126.47,-438.55 126.47,-434.93 163.7,-432 209.53,-432 255.36,-432 292.59,-434.93 292.59,-438.55 292.59,-438.55 292.59,-497.45 292.59,-497.45"/>
<path fill="none" stroke="black" stroke-width="2" d="M292.59,-497.45C292.59,-493.84 255.36,-490.91 209.53,-490.91 163.7,-490.91 126.47,-493.84 126.47,-497.45"/>
<text text-anchor="middle" x="209.53" y="-472.2" font-family="Arial" font-size="14.00">archesys&#45;web&#45;app&#45;db</text>
<text text-anchor="middle" x="209.53" y="-455.4" font-family="Arial" font-size="14.00">(AWS::RDS::DBCluster)</text>
</g>
<!-- archesys&#45;web&#45;app&#45;db&#45;&gt;archesys&#45;web&#45;db&#45;sg -->
<g id="edge20" class="edge">
<title>archesys&#45;web&#45;app&#45;db&#45;&gt;archesys&#45;web&#45;db&#45;sg</title>
<path fill="none" stroke="black" d="M245.49,-431.7C254.51,-422.85 264.29,-413.26 273.64,-404.08"/>
<polygon fill="black" stroke="black" points="275.96,-406.71 280.65,-397.2 271.06,-401.71 275.96,-406.71"/>
</g>
<!-- archesys&#45;web&#45;app&#45;db&#45;&gt;archesys&#45;db&#45;subnets -->
<g id="edge21" class="edge">
<title>archesys&#45;web&#45;app&#45;db&#45;&gt;archesys&#45;db&#45;subnets</title>
<path fill="none" stroke="black" d="M173.9,-431.7C164.97,-422.85 155.28,-413.26 146.01,-404.08"/>
<polygon fill="black" stroke="black" points="148.65,-401.76 139.08,-397.21 143.72,-406.73 148.65,-401.76"/>
</g>
<!-- cert -->
<g id="node17" class="node">
<title>cert</title>
<path fill="#e6e6e6" stroke="black" stroke-width="2" d="M1412.56,-288C1412.56,-288 1182.5,-288 1182.5,-288 1176.5,-288 1170.5,-282 1170.5,-276 1170.5,-276 1170.5,-228 1170.5,-228 1170.5,-222 1176.5,-216 1182.5,-216 1182.5,-216 1412.56,-216 1412.56,-216 1418.56,-216 1424.56,-222 1424.56,-228 1424.56,-228 1424.56,-276 1424.56,-276 1424.56,-282 1418.56,-288 1412.56,-288"/>
<text text-anchor="middle" x="1297.53" y="-256.2" font-family="Arial" font-size="14.00">cert</text>
<text text-anchor="middle" x="1297.53" y="-239.4" font-family="Arial" font-size="14.00">(AWS::CertificateManager::Certificate)</text>
</g>
<!-- http_listener -->
<g id="node18" class="node">
<title>http_listener</title>
<path fill="#e78f81" stroke="black" stroke-width="2" d="M1722.32,-396C1722.32,-396 1472.75,-396 1472.75,-396 1466.75,-396 1460.75,-390 1460.75,-384 1460.75,-384 1460.75,-336 1460.75,-336 1460.75,-330 1466.75,-324 1472.75,-324 1472.75,-324 1722.32,-324 1722.32,-324 1728.32,-324 1734.32,-330 1734.32,-336 1734.32,-336 1734.32,-384 1734.32,-384 1734.32,-390 1728.32,-396 1722.32,-396"/>
<text text-anchor="middle" x="1597.53" y="-364.2" font-family="Arial" font-size="14.00">http_listener</text>
<text text-anchor="middle" x="1597.53" y="-347.4" font-family="Arial" font-size="14.00">(AWS::ElasticLoadBalancingV2::Listener)</text>
</g>
<!-- http_listener&#45;&gt;archesys&#45;web&#45;app&#45;lb -->
<g id="edge22" class="edge">
<title>http_listener&#45;&gt;archesys&#45;web&#45;app&#45;lb</title>
<path fill="none" stroke="black" d="M1597.53,-323.7C1597.53,-315.93 1597.53,-307.57 1597.53,-299.43"/>
<polygon fill="black" stroke="black" points="1601.03,-299.66 1597.53,-289.66 1594.03,-299.66 1601.03,-299.66"/>
</g>
<!-- https_listener -->
<g id="node19" class="node">
<title>https_listener</title>
<path fill="#e78f81" stroke="black" stroke-width="2" d="M1422.32,-396C1422.32,-396 1172.75,-396 1172.75,-396 1166.75,-396 1160.75,-390 1160.75,-384 1160.75,-384 1160.75,-336 1160.75,-336 1160.75,-330 1166.75,-324 1172.75,-324 1172.75,-324 1422.32,-324 1422.32,-324 1428.32,-324 1434.32,-330 1434.32,-336 1434.32,-336 1434.32,-384 1434.32,-384 1434.32,-390 1428.32,-396 1422.32,-396"/>
<text text-anchor="middle" x="1297.53" y="-364.2" font-family="Arial" font-size="14.00">https_listener</text>
<text text-anchor="middle" x="1297.53" y="-347.4" font-family="Arial" font-size="14.00">(AWS::ElasticLoadBalancingV2::Listener)</text>
</g>
<!-- https_listener&#45;&gt;archesys&#45;web&#45;app&#45;lb -->
<g id="edge23" class="edge">
<title>https_listener&#45;&gt;archesys&#45;web&#45;app&#45;lb</title>
<path fill="none" stroke="black" d="M1397.84,-323.56C1426.36,-313.48 1457.59,-302.45 1486.69,-292.16"/>
<polygon fill="black" stroke="black" points="1487.62,-295.55 1495.89,-288.91 1485.29,-288.95 1487.62,-295.55"/>
</g>
<!-- https_listener&#45;&gt;archesys&#45;web&#45;app&#45;tg -->
<g id="edge25" class="edge">
<title>https_listener&#45;&gt;archesys&#45;web&#45;app&#45;tg</title>
<path fill="none" stroke="black" d="M1198.22,-323.56C1169.99,-313.48 1139.08,-302.45 1110.26,-292.16"/>
<polygon fill="black" stroke="black" points="1111.77,-288.98 1101.17,-288.92 1109.41,-295.58 1111.77,-288.98"/>
</g>
<!-- https_listener&#45;&gt;cert -->
<g id="edge24" class="edge">
<title>https_listener&#45;&gt;cert</title>
<path fill="none" stroke="black" d="M1297.53,-323.7C1297.53,-315.93 1297.53,-307.57 1297.53,-299.43"/>
<polygon fill="black" stroke="black" points="1301.03,-299.66 1297.53,-289.66 1294.03,-299.66 1301.03,-299.66"/>
</g>
</g>
</svg>
